# xmcd
#
# Track frame offsets: 
#        150
#        17930
#        31559
#        49823
#        69301
#        85995
#        103745
#        121249
#        136418
#        154240
#
# Disc length: 2299 seconds
#
# Revision: 0
# Processed by: cddbd v1.5.2PL0 Copyright (c) Steve Scherf et al.
# Submitted via: ExactAudioCopy v0.99pb4
#
DISCID=7d08f90a
DTITLE=Craig Morgan - That's Why
DYEAR=2009
DGENRE=Country
TTITLE0=Love Remembers
TTITLE1=Bonfire
TTITLE2=This Ain't Nothin'
TTITLE3=That's Why
TTITLE4=God Must Really Love Me
TTITLE5=Lookin' Back With You
TTITLE6=Sticks
TTITLE7=It Took A Woman
TTITLE8=Planet Her
TTITLE9=Ordinary Angels
EXTD=
EXTT0=
EXTT1=
EXTT2=
EXTT3=
EXTT4=
EXTT5=
EXTT6=
EXTT7=
EXTT8=
EXTT9=
PLAYORDER=
